<svg width="52" height="52" viewBox="0 0 52 52" fill="none" xmlns="http://www.w3.org/2000/svg">
<path d="M25.6575 51.3288C39.5549 51.3288 50.8151 39.9854 50.8151 26C50.8151 12.0146 39.5549 0.671234 25.6575 0.671234C11.7602 0.671234 0.5 12.0146 0.5 26C0.5 39.9854 11.7602 51.3288 25.6575 51.3288Z" stroke="white" stroke-opacity="0.4"/>
<path d="M10.863 41.8904V15.1051V11.1028H31.7098V17.2603H19.2017V18.9536V23.4178H31.7098V29.5754H19.2017V32.6028V34.6553V35.7329H31.7098V41.8904H10.863Z" fill="#7FC586"/>
<path d="M22.2593 26.4966L10.863 41.8904H18.5068L26.1507 31.6279L33.7945 41.8904H41.4383L30.0421 26.4966L41.4383 11.1028H33.7945L26.1507 21.3653L18.5068 11.1028H10.863L22.2593 26.4966Z" fill="#097896" fill-opacity="0.3"/>
</svg>
